<mxfile host="app.diagrams.net" modified="2022-12-08T20:42:11.631Z" agent="5.0 (Macintosh)" version="20.6.0" etag="PUCfnddEf1NqJ08tP6A6" type="github">
  <diagram id="Nx-QAsCa5HQ8IxGvq1Fd" name="Strona-1">
    <mxGraphModel dx="652" dy="441" grid="1" gridSize="10" guides="1" tooltips="1" connect="1" arrows="1" fold="1" page="1" pageScale="1" pageWidth="827" pageHeight="1169" background="#114B5F" math="0" shadow="0">
      <root>
        <mxCell id="0" />
        <mxCell id="1" parent="0" />
        <mxCell id="cGgM-gLB_29vYFhb5zrG-23" style="edgeStyle=orthogonalEdgeStyle;rounded=0;sketch=1;hachureGap=4;jiggle=2;orthogonalLoop=1;jettySize=auto;html=1;strokeColor=#028090;fontFamily=Architects Daughter;fontSource=https%3A%2F%2Ffonts.googleapis.com%2Fcss%3Ffamily%3DArchitects%2BDaughter;fontSize=16;fontColor=#E4FDE1;fillColor=#F45B69;labelBackgroundColor=#114B5F;" edge="1" parent="1" source="cGgM-gLB_29vYFhb5zrG-21" target="cGgM-gLB_29vYFhb5zrG-22">
          <mxGeometry relative="1" as="geometry" />
        </mxCell>
        <mxCell id="cGgM-gLB_29vYFhb5zrG-26" value="&lt;span style=&quot;background-color: transparent;&quot;&gt;3 minutes&lt;/span&gt;" style="edgeLabel;html=1;align=center;verticalAlign=middle;resizable=0;points=[];fontSize=14;fontFamily=Architects Daughter;fontColor=#E4FDE1;labelBackgroundColor=#114B5F;" vertex="1" connectable="0" parent="cGgM-gLB_29vYFhb5zrG-23">
          <mxGeometry x="0.0496" y="3" relative="1" as="geometry">
            <mxPoint as="offset" />
          </mxGeometry>
        </mxCell>
        <mxCell id="cGgM-gLB_29vYFhb5zrG-21" value="Create order" style="rounded=0;whiteSpace=wrap;html=1;labelBackgroundColor=none;sketch=1;hachureGap=4;jiggle=2;strokeColor=#028090;fontFamily=Architects Daughter;fontSource=https%3A%2F%2Ffonts.googleapis.com%2Fcss%3Ffamily%3DArchitects%2BDaughter;fontSize=20;fontColor=#E4FDE1;fillColor=#F45B69;" vertex="1" parent="1">
          <mxGeometry x="280" y="40" width="120" height="60" as="geometry" />
        </mxCell>
        <mxCell id="cGgM-gLB_29vYFhb5zrG-25" value="" style="edgeStyle=orthogonalEdgeStyle;rounded=0;sketch=1;hachureGap=4;jiggle=2;orthogonalLoop=1;jettySize=auto;html=1;strokeColor=#028090;fontFamily=Architects Daughter;fontSource=https%3A%2F%2Ffonts.googleapis.com%2Fcss%3Ffamily%3DArchitects%2BDaughter;fontSize=14;fontColor=#E4FDE1;fillColor=#F45B69;labelBackgroundColor=#114B5F;" edge="1" parent="1" source="cGgM-gLB_29vYFhb5zrG-22" target="cGgM-gLB_29vYFhb5zrG-24">
          <mxGeometry relative="1" as="geometry" />
        </mxCell>
        <mxCell id="cGgM-gLB_29vYFhb5zrG-22" value="&lt;font style=&quot;font-size: 14px;&quot;&gt;Cancel Payment 3 times&lt;/font&gt;" style="rounded=0;whiteSpace=wrap;html=1;labelBackgroundColor=none;sketch=1;hachureGap=4;jiggle=2;strokeColor=#028090;fontFamily=Architects Daughter;fontSource=https%3A%2F%2Ffonts.googleapis.com%2Fcss%3Ffamily%3DArchitects%2BDaughter;fontSize=20;fontColor=#E4FDE1;fillColor=#F45B69;" vertex="1" parent="1">
          <mxGeometry x="280" y="190" width="120" height="60" as="geometry" />
        </mxCell>
        <mxCell id="cGgM-gLB_29vYFhb5zrG-28" value="" style="edgeStyle=orthogonalEdgeStyle;rounded=0;sketch=1;hachureGap=4;jiggle=2;orthogonalLoop=1;jettySize=auto;html=1;strokeColor=#028090;fontFamily=Architects Daughter;fontSource=https%3A%2F%2Ffonts.googleapis.com%2Fcss%3Ffamily%3DArchitects%2BDaughter;fontSize=16;fontColor=#E4FDE1;fillColor=#F45B69;" edge="1" parent="1" source="cGgM-gLB_29vYFhb5zrG-24" target="cGgM-gLB_29vYFhb5zrG-27">
          <mxGeometry relative="1" as="geometry" />
        </mxCell>
        <mxCell id="cGgM-gLB_29vYFhb5zrG-24" value="Confirm payment" style="rounded=0;whiteSpace=wrap;html=1;labelBackgroundColor=none;sketch=1;hachureGap=4;jiggle=2;strokeColor=#028090;fontFamily=Architects Daughter;fontSource=https%3A%2F%2Ffonts.googleapis.com%2Fcss%3Ffamily%3DArchitects%2BDaughter;fontSize=20;fontColor=#E4FDE1;fillColor=#F45B69;" vertex="1" parent="1">
          <mxGeometry x="490" y="190" width="120" height="60" as="geometry" />
        </mxCell>
        <mxCell id="cGgM-gLB_29vYFhb5zrG-27" value="See if its paid" style="rounded=0;whiteSpace=wrap;html=1;labelBackgroundColor=none;sketch=1;hachureGap=4;jiggle=2;strokeColor=#028090;fontFamily=Architects Daughter;fontSource=https%3A%2F%2Ffonts.googleapis.com%2Fcss%3Ffamily%3DArchitects%2BDaughter;fontSize=20;fontColor=#E4FDE1;fillColor=#F45B69;" vertex="1" parent="1">
          <mxGeometry x="490" y="340" width="120" height="60" as="geometry" />
        </mxCell>
        <mxCell id="cGgM-gLB_29vYFhb5zrG-30" value="&lt;div style=&quot;font-size: 14px;&quot; align=&quot;left&quot;&gt;&lt;font style=&quot;font-size: 14px;&quot;&gt;Notifications can come asynchronously. We can get EXPIRED before CONFIRMED&lt;/font&gt;&lt;/div&gt;" style="text;html=1;strokeColor=none;fillColor=none;align=left;verticalAlign=middle;whiteSpace=wrap;rounded=0;sketch=1;hachureGap=4;jiggle=2;fontFamily=Architects Daughter;fontSource=https%3A%2F%2Ffonts.googleapis.com%2Fcss%3Ffamily%3DArchitects%2BDaughter;fontSize=20;fontColor=#E4FDE1;" vertex="1" parent="1">
          <mxGeometry x="40" y="50" width="220" height="30" as="geometry" />
        </mxCell>
      </root>
    </mxGraphModel>
  </diagram>
</mxfile>
